<?xml version="1.0" encoding="UTF-8" standalone="no"?>
<svg
   width="1400"
   height="500"
   version="1.1"
   id="svg6"
   sodipodi:docname="sign_thanks.svg"
   inkscape:version="1.4 (86a8ad7, 2024-10-11)"
   xml:space="preserve"
   xmlns:inkscape="http://www.inkscape.org/namespaces/inkscape"
   xmlns:sodipodi="http://sodipodi.sourceforge.net/DTD/sodipodi-0.dtd"
   xmlns="http://www.w3.org/2000/svg"
   xmlns:svg="http://www.w3.org/2000/svg"><defs
     id="defs6"><inkscape:path-effect
       effect="fillet_chamfer"
       id="path-effect20"
       is_visible="true"
       lpeversion="1"
       nodesatellites_param="F,0,0,1,0,250,0,1 @ F,0,1,1,0,250,0,1 @ F,0,0,1,0,0,0,1 @ F,0,0,1,0,0,0,1"
       radius="0"
       unit="px"
       method="auto"
       mode="F"
       chamfer_steps="1"
       flexible="false"
       use_knot_distance="true"
       apply_no_radius="true"
       apply_with_radius="true"
       only_selected="false"
       hide_knots="false" /><inkscape:path-effect
       effect="fillet_chamfer"
       id="path-effect18"
       is_visible="true"
       lpeversion="1"
       nodesatellites_param="F,0,0,1,0,250,0,1 @ F,0,1,1,0,250,0,1 @ F,0,0,1,0,0,0,1 @ F,0,0,1,0,0,0,1"
       radius="0"
       unit="px"
       method="auto"
       mode="F"
       chamfer_steps="1"
       flexible="false"
       use_knot_distance="true"
       apply_no_radius="true"
       apply_with_radius="true"
       only_selected="false"
       hide_knots="false" /><inkscape:path-effect
       effect="fillet_chamfer"
       id="path-effect3"
       is_visible="true"
       lpeversion="1"
       nodesatellites_param="F,0,0,1,0,37.500786,0,1 @ F,0,1,1,0,37.500786,0,1 @ F,0,0,1,0,0,0,1 @ F,0,0,1,0,0,0,1"
       radius="0"
       unit="px"
       method="auto"
       mode="F"
       chamfer_steps="1"
       flexible="false"
       use_knot_distance="true"
       apply_no_radius="true"
       apply_with_radius="true"
       only_selected="false"
       hide_knots="false" /><inkscape:path-effect
       effect="fillet_chamfer"
       id="path-effect1"
       is_visible="true"
       lpeversion="1"
       nodesatellites_param="F,0,1,1,0,25,0,1 @ F,0,0,1,0,25,0,1 @ F,0,0,1,0,0,0,1 @ F,0,0,1,0,0,0,1"
       radius="0"
       unit="px"
       method="auto"
       mode="F"
       chamfer_steps="1"
       flexible="false"
       use_knot_distance="true"
       apply_no_radius="true"
       apply_with_radius="true"
       only_selected="false"
       hide_knots="false" /><inkscape:path-effect
       effect="fillet_chamfer"
       id="path-effect3-7"
       is_visible="true"
       lpeversion="1"
       nodesatellites_param="F,0,0,1,0,37.500786,0,1 @ F,0,1,1,0,37.500786,0,1 @ F,0,0,1,0,0,0,1 @ F,0,0,1,0,0,0,1"
       radius="0"
       unit="px"
       method="auto"
       mode="F"
       chamfer_steps="1"
       flexible="false"
       use_knot_distance="true"
       apply_no_radius="true"
       apply_with_radius="true"
       only_selected="false"
       hide_knots="false" /></defs><sodipodi:namedview
     id="namedview6"
     pagecolor="#505050"
     bordercolor="#ffffff"
     borderopacity="1"
     inkscape:showpageshadow="0"
     inkscape:pageopacity="0"
     inkscape:pagecheckerboard="1"
     inkscape:deskcolor="#d1d1d1"
     inkscape:zoom="1"
     inkscape:cx="443.99999"
     inkscape:cy="144"
     inkscape:window-width="1920"
     inkscape:window-height="1009"
     inkscape:window-x="-8"
     inkscape:window-y="-8"
     inkscape:window-maximized="1"
     inkscape:current-layer="svg6"
     showguides="false"
     showgrid="true"><inkscape:grid
       id="grid16"
       units="px"
       originx="0"
       originy="0"
       spacingx="10"
       spacingy="10"
       empcolor="#3f3fff"
       empopacity="0.25098039"
       color="#3f3fff"
       opacity="0.1254902"
       empspacing="5"
       enabled="true"
       visible="true" /></sodipodi:namedview><path
     style="font-variation-settings:normal;fill:#733e39;fill-opacity:1;stroke:#733e39;stroke-width:50;stroke-linecap:round;stroke-linejoin:round;stroke-miterlimit:4;stroke-dasharray:none;stroke-dashoffset:0;stroke-opacity:1;stop-color:#000000"
     d="M 75.000001,100 V 300 H 350 v 100 0 -100 H 625 V 100 Z"
     id="path1"
     sodipodi:nodetypes="ccccccccc" /><rect
     style="font-variation-settings:normal;vector-effect:none;fill:#3e2731;fill-opacity:1;fill-rule:evenodd;stroke:none;stroke-width:10;stroke-linecap:round;stroke-linejoin:round;stroke-miterlimit:4;stroke-dasharray:none;stroke-dashoffset:0;stroke-opacity:1;-inkscape-stroke:none;paint-order:normal;stop-color:#000000"
     id="rect4-9"
     width="16.263456"
     height="20.85965"
     x="335"
     y="128" /><path
     style="font-size:64px;line-height:1.25;font-family:'Lilita One';-inkscape-font-specification:'Lilita One';text-align:center;letter-spacing:0px;word-spacing:0px;baseline-shift:baseline;text-anchor:middle;fill:#fee761;stroke:#3e2731;stroke-width:25;stroke-linecap:round;stroke-linejoin:round;paint-order:stroke markers fill"
     d="m 121.29591,153.10951 q 0,1.28 -6.336,1.28 -6.336,0 -6.336,-1.28 v -32.128 h -7.68 q -1.088001,0 -1.536001,-2.944 -0.192,-1.408 -0.192,-2.88 0,-1.472 0.192,-2.88 0.448,-2.944 1.536001,-2.944 h 27.84 q 1.088,0 1.536,2.944 0.192,1.408 0.192,2.88 0,1.472 -0.192,2.88 -0.448,2.944 -1.536,2.944 h -7.488 z m 23.23205,0.576 q 0,0.576 -5.376,0.576 -5.312,0 -5.312,-0.896 v -43.84 q 0,-0.448 1.984,-0.64 1.984,-0.192 3.328,-0.192 5.376,0 5.376,1.152 v 12.8 q 3.584,-1.088 5.44,-1.088 4.864,0 7.68,2.624 2.816,2.56 2.816,9.6 v 19.84 q 0,0.576 -4.992,0.576 -5.632,-0.192 -5.632,-0.64 v -18.816 q 0,-3.136 -2.048,-3.136 -1.408,0 -3.264,1.344 z m 25.40797,-22.784 q -1.792,-3.2 -1.792,-5.184 0,-2.048 1.088,-2.624 3.648,-1.6 9.984,-1.6 6.4,0 9.024,3.008 2.624,2.944 2.624,8.768 v 10.112 h 2.176 q 1.088,0 1.664,1.28 0.64,1.28 0.64,3.52 0,2.24 -1.152,4.416 -1.088,2.176 -3.008,2.176 -3.456,0 -5.568,-1.856 -0.96,-0.768 -1.472,-1.856 -2.944,3.712 -9.152,3.712 -4.672,0 -7.872,-3.328 -3.2,-3.328 -3.2,-7.872 0,-10.432 12.48,-10.432 h 3.52 v -0.64 q 0,-1.664 -0.576,-2.112 -0.512,-0.512 -2.496,-0.512 -2.432,0 -6.912,1.024 z m 5.12,11.776 q 0,1.408 0.768,2.176 0.768,0.704 1.92,0.704 1.216,0 2.176,-0.96 v -4.928 h -1.792 q -3.072,0 -3.072,3.008 z m 37.31201,11.072 q 0,0.448 -4.608,0.448 -6.4,-0.192 -6.4,-0.704 v -20.736 h -1.664 q -1.664,0 -2.176,-2.816 -0.128,-0.832 -0.128,-1.664 0,-1.984 0.768,-3.968 1.152,-2.816 3.584,-2.816 2.432,0 4.352,1.152 1.92,1.152 2.56,2.304 4.032,-3.456 9.6,-3.456 5.568,0 8.064,3.008 2.496,3.008 2.496,9.856 v 19.2 q 0,0.768 -5.504,0.768 -5.44,0 -5.44,-0.768 v -18.496 q 0,-3.2 -2.24,-3.2 -0.64,0 -1.792,0.576 -1.152,0.512 -1.472,0.768 z m 21.88804,-43.904 q 0,-1.024 5.824,-1.024 5.44,0.192 5.44,0.832 v 24.576 l 6.336,-11.712 q 0.448,-0.96 5.44,-0.96 4.992,0 6.4,0.64 l -8.32,13.568 9.6,17.984 q 0.128,0.256 -2.432,0.384 -2.496,0.192 -4.16,0.192 -6.144,0 -6.592,-0.576 l -6.336,-14.208 v 14.144 q 0,0.832 -5.632,0.832 -5.568,0 -5.568,-0.768 z m 34.04798,32.768 q 5.184,3.136 8.192,3.136 1.92,0 1.92,-1.344 0,-0.96 -3.328,-2.496 -8,-3.264 -8,-10.688 0,-4.736 3.456,-7.232 3.456,-2.496 8.256,-2.496 4.864,0 8.192,1.024 3.392,1.024 3.392,2.688 0,1.408 -1.408,3.712 -1.344,2.304 -1.856,2.496 -2.752,-1.536 -5.952,-1.536 -1.728,0 -1.728,1.216 0,0.768 0.64,1.344 0.704,0.512 2.496,1.344 1.792,0.768 2.944,1.408 1.216,0.64 2.688,1.792 3.072,2.432 3.072,6.336 0,5.12 -3.392,8.32 -3.392,3.136 -10.24,3.136 -4.544,0 -8.256,-1.536 -3.712,-1.536 -3.712,-4.224 0,-1.792 0.832,-3.776 0.896,-1.984 1.792,-2.624 z m 41.98403,-11.968 h -3.136 q -0.96,0 -0.96,-4.224 0,-4.288 0.96,-4.288 h 3.136 v -1.408 q 0,-6.784 2.816,-9.344 2.88,-2.624 8,-2.624 5.12,0 9.024,1.856 0.512,0.192 0.512,1.408 0,1.152 -1.088,3.776 -1.088,2.624 -1.856,3.008 -2.176,-1.344 -4.48,-1.344 -2.496,0 -2.496,3.328 v 1.344 h 5.312 q 1.152,0 1.152,4.096 0,4.48 -1.472,4.48 h -4.096 v 22.656 q 0,0.768 -5.696,0.768 -5.632,0 -5.632,-0.768 z m 22.65602,19.712 q -3.968,-4.416 -3.968,-12.224 0,-7.808 3.968,-12.224 4.032,-4.416 10.816,-4.416 6.784,0 10.752,4.416 3.968,4.416 3.968,12.224 0,7.808 -3.968,12.224 -3.968,4.416 -10.752,4.416 -6.784,0 -10.816,-4.416 z m 10.816,-18.176 q -3.584,0 -3.584,5.888 0,5.888 3.584,5.888 3.648,0 3.648,-5.888 0,-5.888 -3.648,-5.888 z m 33.28003,21.888 q 0,0.448 -5.824,0.448 -5.824,-0.128 -5.824,-0.512 v -21.248 h -1.728 q -1.024,0 -1.664,-1.216 -0.576,-1.28 -0.576,-3.136 0,-6.912 4.096,-6.912 2.88,0 4.8,1.792 1.92,1.728 1.92,3.968 1.344,-2.624 3.584,-4.16 2.304,-1.6 4.672,-1.6 3.712,0 4.48,1.92 0.192,0.512 0.192,1.536 0,0.96 -0.64,3.52 -0.576,2.56 -1.216,3.712 -0.64,1.152 -0.768,1.152 -0.128,0 -1.216,-0.448 -1.024,-0.512 -1.856,-0.512 -2.432,0 -2.432,3.84 z m 37.11998,11.712 q 0,0.448 -5.504,0.448 -5.44,0 -5.44,-0.448 v -32.96 h -2.176 q -1.536,0 -2.112,-2.816 -0.192,-0.896 -0.192,-2.304 0,-1.408 0.896,-3.328 1.28,-2.816 4.096,-2.816 1.856,0 3.392,0.896 1.6,0.832 2.176,1.6 0.64,0.704 0.64,0.832 4.288,-3.328 9.28,-3.328 4.992,0 8.576,3.904 3.584,3.84 3.584,11.968 0,8.064 -3.584,12.544 -3.584,4.416 -9.088,4.416 -2.496,0 -4.544,-0.256 z m 2.624,-33.024 q -1.088,0 -2.112,0.704 v 11.328 q 1.088,0.128 1.728,0.128 0.704,0 1.088,0 2.624,-0.256 2.624,-6.72 0,-5.44 -3.328,-5.44 z m 30.78402,20.864 q 0,0.576 -6.528,0.576 -5.12,-0.064 -5.12,-0.512 v -43.584 q 0,-0.96 6.208,-0.96 5.44,0.192 5.44,0.64 z m 9.79196,-22.72 q -1.792,-3.2 -1.792,-5.184 0,-2.048 1.088,-2.624 3.648,-1.6 9.984,-1.6 6.4,0 9.024,3.008 2.624,2.944 2.624,8.768 v 10.112 h 2.176 q 1.088,0 1.664,1.28 0.64,1.28 0.64,3.52 0,2.24 -1.152,4.416 -1.088,2.176 -3.008,2.176 -3.456,0 -5.568,-1.856 -0.96,-0.768 -1.472,-1.856 -2.944,3.712 -9.152,3.712 -4.672,0 -7.872,-3.328 -3.2,-3.328 -3.2,-7.872 0,-10.432 12.48,-10.432 h 3.52 v -0.64 q 0,-1.664 -0.576,-2.112 -0.512,-0.512 -2.496,-0.512 -2.432,0 -6.912,1.024 z m 5.12,11.776 q 0,1.408 0.768,2.176 0.768,0.704 1.92,0.704 1.216,0 2.176,-0.96 v -4.928 h -1.792 q -3.072,0 -3.072,3.008 z m 21.69601,-20.224 q 0,-0.704 5.824,-0.704 5.888,0 6.08,0.64 l 4.608,15.104 4.416,-15.232 q 0.256,-0.512 3.968,-0.512 8.512,0 8.128,0.832 l -15.04,42.816 q -0.064,0.384 -3.52,0.384 -3.392,0 -6.336,-0.256 -2.944,-0.192 -2.816,-0.512 l 5.568,-13.44 z m 48.32004,31.296 q 0,0.512 -5.888,0.512 -5.824,0 -5.824,-0.448 v -31.424 q 0,-0.448 5.824,-0.448 5.888,0 5.888,0.384 z m 0,-35.2 q 0,0.448 -5.888,0.448 -5.824,0 -5.824,-0.384 v -9.216 q 0,-0.64 5.824,-0.64 5.888,0 5.888,0.384 z m 19.13605,35.2 q 0,0.448 -4.608,0.448 -6.4,-0.192 -6.4,-0.704 v -20.736 h -1.664 q -1.664,0 -2.176,-2.816 -0.128,-0.832 -0.128,-1.664 0,-1.984 0.768,-3.968 1.152,-2.816 3.584,-2.816 2.432,0 4.352,1.152 1.92,1.152 2.56,2.304 4.032,-3.456 9.6,-3.456 5.568,0 8.064,3.008 2.496,3.008 2.496,9.856 v 19.2 q 0,0.768 -5.504,0.768 -5.44,0 -5.44,-0.768 v -18.496 q 0,-3.2 -2.24,-3.2 -0.64,0 -1.792,0.576 -1.152,0.512 -1.472,0.768 z m 33.66404,0.384 q -6.208,0 -9.6,-3.968 -3.392,-4.032 -3.392,-11.84 0,-7.872 4.416,-12.288 4.48,-4.48 11.84,-4.48 7.424,0 12.224,3.264 v 31.872 q 0,4.736 -3.84,7.232 -3.84,2.56 -9.856,2.56 -6.016,0 -10.752,-1.536 -0.64,-1.536 -0.64,-2.752 0,-4.096 1.344,-6.016 4.288,1.856 9.152,1.856 3.52,0 3.52,-2.496 v -1.92 q -2.752,0.512 -4.416,0.512 z m 2.944,-22.144 q -4.288,0 -4.288,6.464 0,4.032 1.664,5.248 1.088,0.832 2.176,0.832 1.088,0 1.92,-0.192 v -12.16 q -0.768,-0.192 -1.472,-0.192 z"
     id="text1"
     aria-label="Thanks for playing" /><path
     style="font-size:96px;line-height:1.25;font-family:'Lilita One';-inkscape-font-specification:'Lilita One';text-align:center;letter-spacing:0px;word-spacing:0px;text-anchor:middle;fill:#fee761;stroke:#3e2731;stroke-width:25;stroke-linecap:round;stroke-linejoin:round;paint-order:stroke markers fill"
     d="m 145.85621,275.43047 q 0,1.632 -9.696,1.632 -9.696,0 -9.696,-1.632 v -22.08 h -13.44 v 22.08 q 0,1.632 -9.696,1.632 -9.695996,0 -9.695996,-1.632 v -63.648 q 0,-2.016 9.695996,-2.016 9.696,0 9.696,2.016 v 22.56 h 13.44 v -22.368 q 0,-1.344 4.8,-1.92 2.496,-0.192 4.896,-0.192 l 4.896,0.192 q 4.8,0.576 4.8,1.92 z m 38.11192,2.592 q -13.44,0 -21.984,-8.832 -8.448,-8.832 -8.448,-25.728 0,-16.992 8.544,-25.728 8.64,-8.736 22.176,-8.736 13.632,0 21.984,8.64 8.352,8.544 8.352,26.016 0,17.376 -8.544,25.92 -8.544,8.448 -22.08,8.448 z m 0.096,-50.592 q -4.608,0 -7.776,4.224 -3.072,4.224 -3.072,11.904 0,7.584 2.976,11.712 2.976,4.032 7.776,4.032 4.896,0 7.872,-4.128 3.072,-4.128 3.072,-11.808 0,-7.68 -3.168,-11.808 -3.072,-4.128 -7.68,-4.128 z m 37.24792,43.968 v -59.712 q 0,-2.016 9.696,-2.016 9.792,0 9.792,2.016 v 47.04 h 14.784 q 1.728,0 2.4,4.512 0.288,2.208 0.288,4.512 0,2.304 -0.288,4.704 -0.768,4.608 -2.496,4.608 h -29.568 q -2.112,0 -3.36,-1.728 -1.248,-1.728 -1.248,-3.936 z m 72.76796,-58.368 q 1.248,-3.36 12.288,-3.36 2.784,0 6.528,0.384 3.84,0.384 3.552,0.96 l -19.968,40.128 v 23.424 q 0,1.632 -5.28,2.304 -2.688,0.384 -5.28,0.384 -2.592,0 -5.184,-0.288 -5.28,-0.672 -5.28,-2.4 v -22.848 l -20.64,-40.512 q -0.384,-0.576 3.936,-1.056 4.32,-0.576 7.296,-0.576 11.808,0 12.96,3.456 l 7.008,19.584 z m 110.87995,64.128 q -8.544,0 -8.544,-1.92 l -2.016,-38.496 -11.712,38.976 q -0.384,1.152 -6.528,1.152 -6.144,0 -6.336,-1.056 l -12.096,-39.456 -1.344,38.304 q -0.096,1.44 -3.648,2.016 -3.552,0.48 -5.952,0.48 -2.304,0 -4.512,-0.288 -4.608,-0.672 -4.512,-2.4 l 2.208,-62.4 q 0,-2.304 11.712,-2.304 3.456,0 8.448,0.576 4.992,0.48 5.568,2.016 l 10.752,30.24 9.408,-30.336 q 0.864,-2.496 13.248,-2.496 3.552,0 8.448,0.576 4.992,0.48 4.992,1.824 l 2.784,62.976 q 0,1.056 -3.744,1.536 -3.744,0.48 -6.624,0.48 z m 48.38396,0.864 q -13.44,0 -21.984,-8.832 -8.448,-8.832 -8.448,-25.728 0,-16.992 8.544,-25.728 8.64,-8.736 22.176,-8.736 13.632,0 21.984,8.64 8.352,8.544 8.352,26.016 0,17.376 -8.544,25.92 -8.544,8.448 -22.08,8.448 z m 0.096,-50.592 q -4.608,0 -7.776,4.224 -3.072,4.224 -3.072,11.904 0,7.584 2.976,11.712 2.976,4.032 7.776,4.032 4.896,0 7.872,-4.128 3.072,-4.128 3.072,-11.808 0,-7.68 -3.168,-11.808 -3.072,-4.128 -7.68,-4.128 z m 37.24792,43.968 v -59.712 q 0,-2.016 9.696,-2.016 9.792,0 9.792,2.016 v 47.04 h 14.784 q 1.728,0 2.4,4.512 0.288,2.208 0.288,4.512 0,2.304 -0.288,4.704 -0.768,4.608 -2.496,4.608 h -29.568 q -2.112,0 -3.36,-1.728 -1.248,-1.728 -1.248,-3.936 z m 72.76796,-58.368 q 1.248,-3.36 12.288,-3.36 2.784,0 6.528,0.384 3.84,0.384 3.552,0.96 l -19.968,40.128 v 23.424 q 0,1.632 -5.28,2.304 -2.688,0.384 -5.28,0.384 -2.592,0 -5.184,-0.288 -5.28,-0.672 -5.28,-2.4 v -22.848 l -20.64,-40.512 q -0.384,-0.576 3.936,-1.056 4.32,-0.576 7.296,-0.576 11.808,0 12.96,3.456 l 7.008,19.584 z m 40.99198,43.872 q 0,0.576 -6.912,0.576 -6.816,0 -6.816,-0.48 l -1.92,-47.328 q 0,-0.768 8.736,-0.768 8.832,0 8.832,0.672 z m -15.84,5.76 q 0,-0.672 8.832,-0.672 8.928,0 8.928,0.576 v 13.824 q 0,0.96 -8.928,0.96 -8.832,0 -8.832,-0.576 z"
     id="text2"
     aria-label="HOLY MOLY!" /><path
     style="font-variation-settings:normal;fill:#ffffff;fill-opacity:1;stroke:#ffffff;stroke-width:50;stroke-linecap:round;stroke-linejoin:round;stroke-miterlimit:4;stroke-dasharray:none;stroke-dashoffset:0;stroke-opacity:1;stop-color:#000000"
     d="m 775,100 v 200 h 275 v 100 0 -100 h 275 V 100 Z"
     id="path3"
     sodipodi:nodetypes="ccccccccc" /><rect
     style="font-variation-settings:normal;opacity:1;vector-effect:none;fill:#3e2731;fill-opacity:1;fill-rule:evenodd;stroke:none;stroke-width:10;stroke-linecap:round;stroke-linejoin:round;stroke-miterlimit:4;stroke-dasharray:none;stroke-dashoffset:0;stroke-opacity:1;-inkscape-stroke:none;paint-order:normal;stop-color:#000000;stop-opacity:1"
     id="rect4"
     width="16.263456"
     height="20.85965"
     x="246.60349"
     y="231.22391" /><rect
     style="font-variation-settings:normal;vector-effect:none;fill:#3e2731;fill-opacity:1;fill-rule:evenodd;stroke:none;stroke-width:10;stroke-linecap:round;stroke-linejoin:round;stroke-miterlimit:4;stroke-dasharray:none;stroke-dashoffset:0;stroke-opacity:1;-inkscape-stroke:none;paint-order:normal;stop-color:#000000"
     id="rect4-0"
     width="16.263456"
     height="20.85965"
     x="516"
     y="234" /></svg>
